<svg width="46" height="46" viewBox="0 0 46 46" fill="none" xmlns="http://www.w3.org/2000/svg">
<circle cx="23" cy="23" r="23" fill="#FFA5B5"/>
    <path d="M14 10L11 13M20.288 3.031C20.3829 2.99825 20.4851 2.99286 20.5829 3.01545C20.6807 3.03803 20.7702 3.08768 20.8411 3.15871C20.912 3.22974 20.9615 3.31929 20.984 3.41714C21.0064 3.51498 21.0009 3.61716 20.968 3.712L15.044 20.642C15.0085 20.7432 14.9435 20.8314 14.8573 20.8952C14.7711 20.959 14.6677 20.9954 14.5606 20.9997C14.4534 21.004 14.3475 20.976 14.2564 20.9194C14.1654 20.8627 14.0935 20.78 14.05 20.682L10.831 13.44C10.7773 13.3192 10.6807 13.2227 10.56 13.169L3.31799 9.949C3.22028 9.90538 3.1379 9.83346 3.08149 9.74253C3.02508 9.65161 2.99723 9.54586 3.00153 9.43894C3.00584 9.33203 3.04211 9.22886 3.10565 9.14277C3.16919 9.05668 3.25709 8.99162 3.35798 8.956L20.288 3.031Z"
        stroke="white"
        stroke-width="1.5"
        stroke-linecap="round"
        stroke-linejoin="round"
        transform="translate(10.5,10.5)"/>

</svg>
